/* XPM */
static char *collectible_xpm[] = {
"32 32 5 1",
"0 c #000000",
"1 c #1E1E1E",
"2 c #3FA7D6",
"3 c #55C7F7",
"4 c #FFFFFF",
"00000000000000020000000000000000",
"00000000000000232000000000000000",
"00000000000002333000000000000000",
"00000000000023333300000000000000",
"00000000000233333320000000000000",
"00000000002333333330000000000000",
"00000000023333333332000000000000",
"00000000233333333333200000000000",
"00000002333333333333300000000000",
"00000023333333333333320000000000",
"00000233333333333333330000000000",
"00002333333333333333332000000000",
"00023333333333333333333200000000",
"00233333333333333333333320000000",
"02333333333333333333333330000000",
"23333333333333333333333332000000",
"02333333333333333333333330000000",
"00233333333333333333333320000000",
"00023333333333333333333200000000",
"00002333333333333333332000000000",
"00000233333333333333330000000000",
"00000023333333333333320000000000",
"00000002333333333333300000000000",
"00000000233333333333200000000000",
"00000000023333333332000000000000",
"00000000002333333330000000000000",
"00000000000233333320000000000000",
"00000000000023333300000000000000",
"00000000000002333000000000000000",
"00000000000000232000000000000000",
"00000000000000020000000000000000",
"00000000000000000000000000000000"
};
