/* XPM */
static char *player_xpm[] = {
"32 32 5 1",
"0 c #000000",
"1 c #FFD35A",
"2 c #8B5A2B",
"3 c #FFFFFF",
"4 c #2E2E2E",
"00000000000011111111111100000000",
"00000000111111111111111111000000",
"00000011111111111111111111100000",
"00000111111111111111111111110000",
"00001111111111111111111111111000",
"00011111111111111111111111111100",
"00111111111113333311111111111100",
"00111111111113333311111111111100",
"01111111111113333311111111111110",
"01111111111113333311111111111110",
"01111112221113333311112221111110",
"01111112221113333311112221111110",
"01111112221113333311112221111110",
"01111112221113333311112221111110",
"01111122222111111111122222111110",
"01111122222111111111122222111110",
"01111112222111111111122221111110",
"01111112222111111111122221111110",
"01111111222111111111122211111110",
"01111111111111111111111111111110",
"00111111111144444411111111111100",
"00111111111144444411111111111100",
"00011111111144444411111111111000",
"00011111111144444411111111111000",
"00001111111144444411111111110000",
"00000111111144444411111111100000",
"00000011111144444411111111000000",
"00000001111144444411111110000000",
"00000000111144444411111100000000",
"00000000011111111111111000000000",
"00000000001111111111110000000000",
"00000000000111111111100000000000"
};
