/* XPM */
static char *wall_xpm[] = {
"32 32 3 1",
"0 c #3C2F2F",
"1 c #5A3B31",
"2 c #704A3A",
"00000000000000000000000000000000",
"01111101111101111101111101111110",
"01111101111101111101111101111110",
"01111101111101111101111101111110",
"01111101111101111101111101111110",
"01111101111101111101111101111110",
"02222202222202222202222202222220",
"02222202222202222202222202222220",
"02222202222202222202222202222220",
"02222202222202222202222202222220",
"02222202222202222202222202222220",
"02222202222202222202222202222220",
"00000000000000000000000000000000",
"01111101111101111101111101111110",
"01111101111101111101111101111110",
"01111101111101111101111101111110",
"01111101111101111101111101111110",
"01111101111101111101111101111110",
"02222202222202222202222202222220",
"02222202222202222202222202222220",
"02222202222202222202222202222220",
"02222202222202222202222202222220",
"02222202222202222202222202222220",
"02222202222202222202222202222220",
"00000000000000000000000000000000",
"01111101111101111101111101111110",
"01111101111101111101111101111110",
"01111101111101111101111101111110",
"01111101111101111101111101111110",
"01111101111101111101111101111110",
"02222202222202222202222202222220",
"02222202222202222202222202222220",
"02222202222202222202222202222220",
"02222202222202222202222202222220",
"02222202222202222202222202222220",
"02222202222202222202222202222220"
};
